<mxfile host="app.diagrams.net" modified="2024-02-06T11:37:35.346Z" agent="Mozilla/5.0 (X11; Ubuntu; Linux x86_64; rv:122.0) Gecko/20100101 Firefox/122.0" etag="oy5eXPHCZT34y0nWD3Rx" version="23.1.1" type="github">
  <diagram name="Page-1" id="xDzLl6uUlhmzF3_dJEIr">
    <mxGraphModel dx="1574" dy="1835" grid="1" gridSize="10" guides="1" tooltips="1" connect="1" arrows="1" fold="1" page="1" pageScale="1" pageWidth="850" pageHeight="1400" math="0" shadow="0">
      <root>
        <mxCell id="0" />
        <mxCell id="1" parent="0" />
        <mxCell id="yO7cqaHyVrYdfLRChgCo-1" value="Stampede" style="swimlane;whiteSpace=wrap;html=1;" vertex="1" parent="1">
          <mxGeometry x="-20" y="-30" width="640" height="520" as="geometry" />
        </mxCell>
        <mxCell id="yO7cqaHyVrYdfLRChgCo-2" value="" style="rounded=0;whiteSpace=wrap;html=1;" vertex="1" parent="yO7cqaHyVrYdfLRChgCo-1">
          <mxGeometry x="620" width="20" height="20" as="geometry" />
        </mxCell>
        <mxCell id="yO7cqaHyVrYdfLRChgCo-3" value="" style="verticalLabelPosition=bottom;verticalAlign=top;html=1;shape=mxgraph.basic.x" vertex="1" parent="yO7cqaHyVrYdfLRChgCo-1">
          <mxGeometry x="620" y="5" width="20" height="10" as="geometry" />
        </mxCell>
        <mxCell id="yO7cqaHyVrYdfLRChgCo-5" value="&lt;font style=&quot;font-size: 27px;&quot;&gt;&lt;b&gt;Main Menu&lt;/b&gt;&lt;/font&gt;" style="text;html=1;align=center;verticalAlign=middle;resizable=0;points=[];autosize=1;strokeColor=none;fillColor=none;" vertex="1" parent="yO7cqaHyVrYdfLRChgCo-1">
          <mxGeometry x="240" y="80" width="160" height="50" as="geometry" />
        </mxCell>
        <mxCell id="yO7cqaHyVrYdfLRChgCo-6" value="New simulation" style="rounded=1;whiteSpace=wrap;html=1;" vertex="1" parent="yO7cqaHyVrYdfLRChgCo-1">
          <mxGeometry x="220" y="160" width="210" height="60" as="geometry" />
        </mxCell>
        <mxCell id="yO7cqaHyVrYdfLRChgCo-7" value="Load simulation" style="rounded=1;whiteSpace=wrap;html=1;" vertex="1" parent="yO7cqaHyVrYdfLRChgCo-1">
          <mxGeometry x="220" y="240" width="210" height="60" as="geometry" />
        </mxCell>
        <mxCell id="yO7cqaHyVrYdfLRChgCo-8" value="Settings" style="rounded=1;whiteSpace=wrap;html=1;" vertex="1" parent="yO7cqaHyVrYdfLRChgCo-1">
          <mxGeometry x="220" y="320" width="210" height="60" as="geometry" />
        </mxCell>
        <mxCell id="yO7cqaHyVrYdfLRChgCo-9" value="Help" style="rounded=1;whiteSpace=wrap;html=1;" vertex="1" parent="yO7cqaHyVrYdfLRChgCo-1">
          <mxGeometry x="220" y="400" width="210" height="60" as="geometry" />
        </mxCell>
      </root>
    </mxGraphModel>
  </diagram>
</mxfile>
